HIERARCHY
ROOT Hips
{
	OFFSET 0.000000 121.760803 0.000000
	CHANNELS 6 Xposition Yposition Zposition Xrotation Yrotation Zrotation 
	JOINT Spine
	{
		OFFSET 0.072000 7.257294 -0.789700
		CHANNELS 3 Xrotation Yrotation Zrotation
		JOINT Spine1
		{
			OFFSET 0.000000 12.508769 -0.658067
			CHANNELS 3 Xrotation Yrotation Zrotation
			JOINT Spine1_split
			{
				OFFSET 0.000000 12.508769 -0.658067
				CHANNELS 3 Xrotation Yrotation Zrotation
				JOINT Spine2
				{
					OFFSET 0.000000 12.508769 -0.658067
					CHANNELS 3 Xrotation Yrotation Zrotation
					JOINT Neck
					{
						OFFSET 0.000000 14.033295 7.520400
						CHANNELS 3 Xrotation Yrotation Zrotation
						JOINT Head
						{
							OFFSET 0.000000 8.198502 5.703100
							CHANNELS 3 Xrotation Yrotation Zrotation
							JOINT HeadTop_End
							{
								OFFSET 0.000000 17.760803 13.332701
								CHANNELS 3 Xrotation Yrotation Zrotation
								End Site
								{
									OFFSET 0.000000 0.000000 0.000000
								}
							}
						}
					}
					JOINT LeftShoulder
					{
						OFFSET 6.292450 5.785301 -0.669000
						CHANNELS 3 Xrotation Yrotation Zrotation
						JOINT LeftShoulder_split
						{
							OFFSET 6.292450 5.785301 -0.669000
							CHANNELS 3 Xrotation Yrotation Zrotation
							JOINT LeftArm
							{
								OFFSET 13.907140 -6.093903 1.965100
								CHANNELS 3 Xrotation Yrotation Zrotation
								JOINT LeftForeArm
								{
									OFFSET 34.140198 0.000000 0.000000
									CHANNELS 3 Xrotation Yrotation Zrotation
									JOINT LeftHand
									{
										OFFSET 40.960209 0.000000 0.000000
										CHANNELS 3 Xrotation Yrotation Zrotation
										JOINT LeftHandThumb1
										{
											OFFSET 10.006996 -7.170425 9.573125
											CHANNELS 3 Xrotation Yrotation Zrotation
											JOINT LeftHandThumb2
											{
												OFFSET 1.835007 -1.059448 1.059443
												CHANNELS 3 Xrotation Yrotation Zrotation
												JOINT LeftHandThumb3
												{
													OFFSET 2.112267 -1.219513 1.219518
													CHANNELS 3 Xrotation Yrotation Zrotation
													JOINT LeftHandThumb4
													{
														OFFSET 4.843811 -2.796570 2.796576
														CHANNELS 3 Xrotation Yrotation Zrotation
														End Site
														{
															OFFSET 0.000000 0.000000 0.000000
														}
													}
												}
											}
										}
										JOINT LeftHandIndex1
										{
											OFFSET 18.389847 -0.922348 4.596882
											CHANNELS 3 Xrotation Yrotation Zrotation
											JOINT LeftHandIndex2
											{
												OFFSET 4.711273 0.000000 0.000000
												CHANNELS 3 Xrotation Yrotation Zrotation
												JOINT LeftHandIndex3
												{
													OFFSET 2.886131 0.000000 0.000000
													CHANNELS 3 Xrotation Yrotation Zrotation
													JOINT LeftHandIndex4
													{
														OFFSET 6.145912 0.000000 0.000000
														CHANNELS 3 Xrotation Yrotation Zrotation
														End Site
														{
															OFFSET 0.000000 0.000000 0.000000
														}
													}
												}
											}
										}
										JOINT LeftHandMiddle1
										{
											OFFSET 18.013008 0.000000 0.000000
											CHANNELS 3 Xrotation Yrotation Zrotation
											JOINT LeftHandMiddle2
											{
												OFFSET 4.946693 0.000000 0.000000
												CHANNELS 3 Xrotation Yrotation Zrotation
												JOINT LeftHandMiddle3
												{
													OFFSET 3.342232 0.000000 0.000000
													CHANNELS 3 Xrotation Yrotation Zrotation
													JOINT LeftHandMiddle4
													{
														OFFSET 4.461754 0.000000 0.000000
														CHANNELS 3 Xrotation Yrotation Zrotation
														End Site
														{
															OFFSET 0.000000 0.000000 0.000000
														}
													}
												}
											}
										}
										JOINT LeftHandRing1
										{
											OFFSET 15.849892 -0.102921 -4.126150
											CHANNELS 3 Xrotation Yrotation Zrotation
											JOINT LeftHandRing2
											{
												OFFSET 3.527054 0.000000 0.000000
												CHANNELS 3 Xrotation Yrotation Zrotation
												JOINT LeftHandRing3
												{
													OFFSET 2.961098 0.000000 0.000000
													CHANNELS 3 Xrotation Yrotation Zrotation
													JOINT LeftHandRing4
													{
														OFFSET 4.927200 0.000000 0.000000
														CHANNELS 3 Xrotation Yrotation Zrotation
														End Site
														{
															OFFSET 0.000000 0.000000 0.000000
														}
													}
												}
											}
										}
										JOINT LeftHandPinky1
										{
											OFFSET 12.791824 -0.832031 -6.799156
											CHANNELS 3 Xrotation Yrotation Zrotation
											JOINT LeftHandPinky2
											{
												OFFSET 3.327133 0.000000 0.000000
												CHANNELS 3 Xrotation Yrotation Zrotation
												JOINT LeftHandPinky3
												{
													OFFSET 3.014900 0.000000 0.000000
													CHANNELS 3 Xrotation Yrotation Zrotation
													JOINT LeftHandPinky4
													{
														OFFSET 5.847786 0.000000 0.000000
														CHANNELS 3 Xrotation Yrotation Zrotation
														End Site
														{
															OFFSET 0.000000 0.000000 0.000000
														}
													}
												}
											}
										}
									}
								}
							}
						}
					}
					JOINT RightShoulder
					{
						OFFSET -6.292450 5.785301 -0.669000
						CHANNELS 3 Xrotation Yrotation Zrotation
						JOINT RightShoulder_split
						{
							OFFSET -6.292450 5.785301 -0.669000
							CHANNELS 3 Xrotation Yrotation Zrotation
							JOINT RightArm
							{
								OFFSET -13.907140 -6.093903 1.965100
								CHANNELS 3 Xrotation Yrotation Zrotation
								JOINT RightForeArm
								{
									OFFSET -34.140198 0.000000 0.000000
									CHANNELS 3 Xrotation Yrotation Zrotation
									JOINT RightHand
									{
										OFFSET -40.960209 0.000000 0.000000
										CHANNELS 3 Xrotation Yrotation Zrotation
										JOINT RightHandThumb1
										{
											OFFSET -10.007050 -7.170456 9.573117
											CHANNELS 3 Xrotation Yrotation Zrotation
											JOINT RightHandThumb2
											{
												OFFSET -1.835007 -1.059448 1.059443
												CHANNELS 3 Xrotation Yrotation Zrotation
												JOINT RightHandThumb3
												{
													OFFSET -2.112267 -1.219513 1.219518
													CHANNELS 3 Xrotation Yrotation Zrotation
													JOINT RightHandThumb4
													{
														OFFSET -4.843834 -2.796585 2.796590
														CHANNELS 3 Xrotation Yrotation Zrotation
														End Site
														{
															OFFSET 0.000000 0.000000 0.000000
														}
													}
												}
											}
										}
										JOINT RightHandIndex1
										{
											OFFSET -18.389870 -0.922424 4.596786
											CHANNELS 3 Xrotation Yrotation Zrotation
											JOINT RightHandIndex2
											{
												OFFSET -4.711273 0.000000 0.000000
												CHANNELS 3 Xrotation Yrotation Zrotation
												JOINT RightHandIndex3
												{
													OFFSET -2.886131 0.000000 0.000000
													CHANNELS 3 Xrotation Yrotation Zrotation
													JOINT RightHandIndex4
													{
														OFFSET -6.145920 0.000000 0.000000
														CHANNELS 3 Xrotation Yrotation Zrotation
														End Site
														{
															OFFSET 0.000000 0.000000 0.000000
														}
													}
												}
											}
										}
										JOINT RightHandMiddle1
										{
											OFFSET -18.013008 0.000000 0.000000
											CHANNELS 3 Xrotation Yrotation Zrotation
											JOINT RightHandMiddle2
											{
												OFFSET -4.946693 0.000000 0.000000
												CHANNELS 3 Xrotation Yrotation Zrotation
												JOINT RightHandMiddle3
												{
													OFFSET -3.342232 0.000000 0.000000
													CHANNELS 3 Xrotation Yrotation Zrotation
													JOINT RightHandMiddle4
													{
														OFFSET -4.461754 0.000000 0.000000
														CHANNELS 3 Xrotation Yrotation Zrotation
														End Site
														{
															OFFSET 0.000000 0.000000 0.000000
														}
													}
												}
											}
										}
										JOINT RightHandRing1
										{
											OFFSET -15.849876 -0.102936 -4.126237
											CHANNELS 3 Xrotation Yrotation Zrotation
											JOINT RightHandRing2
											{
												OFFSET -3.527054 0.000000 0.000000
												CHANNELS 3 Xrotation Yrotation Zrotation
												JOINT RightHandRing3
												{
													OFFSET -2.961098 0.000000 0.000000
													CHANNELS 3 Xrotation Yrotation Zrotation
													JOINT RightHandRing4
													{
														OFFSET -4.927200 0.000000 0.000000
														CHANNELS 3 Xrotation Yrotation Zrotation
														End Site
														{
															OFFSET 0.000000 0.000000 0.000000
														}
													}
												}
											}
										}
										JOINT RightHandPinky1
										{
											OFFSET -12.791786 -0.832077 -6.799222
											CHANNELS 3 Xrotation Yrotation Zrotation
											JOINT RightHandPinky2
											{
												OFFSET -3.327133 0.000000 0.000000
												CHANNELS 3 Xrotation Yrotation Zrotation
												JOINT RightHandPinky3
												{
													OFFSET -3.014900 0.000000 0.000000
													CHANNELS 3 Xrotation Yrotation Zrotation
													JOINT RightHandPinky4
													{
														OFFSET -5.847786 0.000000 0.000000
														CHANNELS 3 Xrotation Yrotation Zrotation
														End Site
														{
															OFFSET 0.000000 0.000000 0.000000
														}
													}
												}
											}
										}
									}
								}
							}
						}
					}
				}
			}
		}
	}
	JOINT LeftUpLeg
	{
		OFFSET 13.026900 -6.336304 -1.092800
		CHANNELS 3 Xrotation Yrotation Zrotation
		JOINT LeftLeg
		{
			OFFSET 0.524474 -46.096886 9.782700
			CHANNELS 3 Xrotation Yrotation Zrotation
			JOINT LeftFoot
			{
				OFFSET -0.524474 -53.427422 -12.948200
				CHANNELS 3 Xrotation Yrotation Zrotation
				JOINT LeftToeBase
				{
					OFFSET 0.192200 -14.009700 16.364100
					CHANNELS 3 Xrotation Yrotation Zrotation
					JOINT LeftToe_End
					{
						OFFSET -1.784700 -0.561700 9.474800
						CHANNELS 3 Xrotation Yrotation Zrotation
						End Site
						{
							OFFSET 0.000000 0.000000 0.000000
						}
					}
				}
			}
		}
	}
	JOINT RightUpLeg
	{
		OFFSET -12.883000 -6.336304 -1.092800
		CHANNELS 3 Xrotation Yrotation Zrotation
		JOINT RightLeg
		{
			OFFSET -0.524587 -46.096825 9.782800
			CHANNELS 3 Xrotation Yrotation Zrotation
			JOINT RightFoot
			{
				OFFSET 0.524587 -53.427383 -12.948300
				CHANNELS 3 Xrotation Yrotation Zrotation
				JOINT RightToeBase
				{
					OFFSET -0.192200 -14.009700 16.364100
					CHANNELS 3 Xrotation Yrotation Zrotation
					JOINT RightToe_End
					{
						OFFSET 1.784700 -0.561700 9.474800
						CHANNELS 3 Xrotation Yrotation Zrotation
						End Site
						{
							OFFSET 0.000000 0.000000 0.000000
						}
					}
				}
			}
		}
	}
}
MOTION
Frames: 4
Frame Time: 0.016667
5.938495 87.483421 166.861984 8.352235 -18.437990 2.422991 2.291686 -5.653733 0.227784 4.820220 -8.149185 2.085947 0.000000 0.000000 0.000000 4.820149 -8.149129 2.085946 9.532184 2.585888 14.901490 -2.611317 9.939547 -20.211635 -0.000001 0.000000 0.000000 -4.481864 -16.524630 -19.193559 0.000000 0.000000 0.000000 -50.218269 -13.065776 -29.545349 -9.513704 -45.265101 18.313344 -90.641316 -9.142740 11.811229 18.604737 9.201145 -20.335720 9.366551 23.517108 3.907243 15.631117 30.652243 0.949976 0.000000 0.000002 -0.000002 5.062909 7.259547 -60.393489 0.009030 -4.396054 -76.234740 -0.014954 1.943549 -28.702781 -0.000001 -0.000001 0.000000 -0.063980 4.758039 -60.986814 -0.080419 -4.896941 -84.974377 -0.077662 1.572471 -47.862680 -0.000002 0.000001 -0.000001 -0.034417 -0.057005 -61.362256 -0.169944 -1.351954 -91.625383 -0.058871 1.209375 -28.345007 0.000002 0.000001 -0.000000 -4.255094 -2.157308 -63.603166 -0.059589 -0.064772 -85.011089 -0.006190 -0.027515 -25.011497 0.000000 0.000001 -0.000001 0.026771 -1.767841 1.230274 0.000000 0.000000 0.000000 -18.293041 31.587316 8.179664 40.535185 8.128179 -4.683271 -43.424744 -46.363710 -11.839858 15.959768 -4.187787 29.032204 -14.791982 -41.235474 -16.515536 1.538932 -36.186499 -16.491864 0.000000 0.000003 -0.000002 5.358203 -4.863582 67.585036 0.006265 4.394823 68.693439 -0.015238 -1.944179 51.003785 -0.000001 0.000002 0.000000 -0.076818 -4.752195 70.834888 -0.076442 4.897900 82.216346 -0.094635 -1.559164 59.800321 -0.000000 -0.000001 -0.000002 -1.164532 -6.475325 73.357475 -0.172080 1.351248 92.834367 -0.068410 -1.195411 42.966275 -0.000001 0.000000 0.000002 -5.344951 -12.802398 81.125251 -0.058412 0.065303 84.695971 -0.011906 0.037061 34.883292 0.000001 0.000001 0.000000 20.815758 31.570654 13.009965 34.800640 15.781750 -5.826746 -20.818533 -5.125701 -28.226377 -32.294634 0.678140 -9.597811 -0.000000 -0.000001 0.000000 -72.761356 -5.765702 -9.081164 58.899822 3.498466 -7.681084 4.578626 7.560095 5.235921 -2.924176 2.984519 1.673282 -0.000000 0.000000 -0.000000 
5.048616 87.979416 169.913086 10.228278 -17.613598 2.124714 2.266227 -6.542143 0.290997 4.899763 -10.154805 2.662431 0.000000 0.000000 0.000000 4.899742 -10.154736 2.662415 8.502552 4.160263 15.381248 -1.540124 11.907267 -20.331219 -0.000001 0.000002 0.000000 -5.170238 -18.664291 -18.158316 0.000000 0.000000 0.000000 -46.432811 -18.052736 -34.485591 -9.204844 -38.217043 16.317057 -98.519960 2.929847 8.071415 18.604732 9.201143 -20.335722 9.366549 23.517106 3.907237 15.631108 30.652236 0.949980 0.000002 -0.000003 0.000001 5.062911 7.259549 -60.393489 0.009028 -4.396061 -76.234740 -0.014954 1.943545 -28.702781 0.000001 -0.000003 -0.000001 -0.063976 4.758040 -60.986814 -0.080417 -4.896940 -84.974383 -0.077661 1.572467 -47.862684 -0.000001 -0.000002 -0.000001 -0.034417 -0.057008 -61.362256 -0.169943 -1.351958 -91.625383 -0.058871 1.209376 -28.345005 -0.000001 -0.000002 -0.000001 -4.255093 -2.157307 -63.603166 -0.059587 -0.064771 -85.011089 -0.006189 -0.027517 -25.011497 0.000000 -0.000001 0.000000 0.248731 -2.144189 4.457621 0.000000 0.000000 0.000000 -14.470977 21.706649 4.671653 37.782253 8.308576 -4.381099 -41.885145 -47.673672 -10.025594 15.959767 -4.187791 29.032207 -14.791977 -41.235471 -16.515537 1.538934 -36.186499 -16.491869 0.000002 -0.000001 -0.000003 5.358202 -4.863578 67.585036 0.006265 4.394822 68.693439 -0.015238 -1.944184 51.003792 -0.000001 0.000000 -0.000000 -0.076818 -4.752195 70.834881 -0.076448 4.897899 82.216346 -0.094640 -1.559163 59.800321 0.000000 0.000005 0.000000 -1.164532 -6.475326 73.357475 -0.172079 1.351247 92.834367 -0.068410 -1.195414 42.966278 0.000002 0.000002 0.000001 -5.344950 -12.802396 81.125251 -0.058412 0.065303 84.695978 -0.011906 0.037063 34.883286 -0.000000 -0.000002 0.000002 21.093383 33.074426 13.717236 31.451409 17.308852 -5.864502 -17.426068 -6.181978 -28.416210 -34.766834 -1.082553 -11.336277 0.000000 -0.000002 -0.000000 -73.118650 -7.156389 -9.759309 60.466893 4.688334 -7.664502 1.618842 6.330261 5.182430 -2.924225 2.984542 1.673305 0.000000 0.000001 -0.000000 
4.108486 88.585434 173.175659 11.975173 -16.692929 1.834144 2.228438 -7.298186 0.215837 4.960983 -11.924864 3.021995 0.000000 0.000000 0.000000 4.961003 -11.924957 3.022036 7.327447 5.709597 15.847434 -0.541797 13.761540 -20.423744 0.000002 -0.000000 0.000001 -5.400962 -20.399535 -16.650072 0.000000 0.000000 0.000000 -43.348475 -23.388168 -38.897931 -9.093626 -31.903827 14.184701 -106.152396 14.962533 7.623541 18.604737 9.201144 -20.335724 9.366550 23.517108 3.907243 15.631113 30.652240 0.949978 0.000000 0.000002 0.000002 5.062911 7.259545 -60.393489 0.009027 -4.396056 -76.234740 -0.014953 1.943544 -28.702784 0.000002 0.000004 -0.000003 -0.063976 4.758039 -60.986814 -0.080416 -4.896943 -84.974377 -0.077662 1.572472 -47.862684 0.000000 -0.000006 0.000000 -0.034415 -0.057008 -61.362256 -0.169944 -1.351957 -91.625383 -0.058871 1.209372 -28.345010 0.000001 0.000004 -0.000000 -4.255092 -2.157310 -63.603166 -0.059589 -0.064772 -85.011089 -0.006182 -0.027512 -25.011497 0.000001 -0.000005 -0.000001 0.440947 -2.570703 6.867593 0.000000 0.000000 0.000000 -12.839507 16.555900 3.599490 34.933662 8.728761 -3.601198 -39.383680 -54.979946 -8.524786 15.959767 -4.187792 29.032211 -14.791977 -41.235478 -16.515539 1.538933 -36.186503 -16.491861 -0.000000 -0.000000 -0.000001 5.358203 -4.863580 67.585036 0.006266 4.394825 68.693439 -0.015242 -1.944182 51.003792 0.000001 0.000001 0.000000 -0.076817 -4.752195 70.834881 -0.076446 4.897900 82.216346 -0.094638 -1.559165 59.800321 -0.000000 0.000001 0.000000 -1.164532 -6.475329 73.357475 -0.172078 1.351248 92.834367 -0.068411 -1.195414 42.966278 -0.000000 -0.000000 0.000002 -5.344952 -12.802398 81.125251 -0.058412 0.065303 84.695978 -0.011906 0.037062 34.883292 0.000000 -0.000000 0.000002 21.130828 34.432377 14.631025 28.252232 18.936425 -5.933149 -12.401610 -7.477349 -28.387079 -38.718870 -3.278390 -12.999116 -0.000000 0.000001 -0.000000 -72.914476 -8.237347 -10.268503 61.884171 6.236574 -7.611477 -1.525245 4.367410 5.130121 -2.924252 2.984552 1.673328 -0.000000 0.000000 -0.000000 
3.270632 89.125023 176.070496 13.037967 -17.099580 1.536621 2.186970 -7.898750 0.113639 5.005436 -13.331985 3.278265 0.000000 0.000000 0.000000 5.005473 -13.331925 3.278248 6.051128 7.224996 16.300537 0.372252 15.500518 -20.487822 0.000001 0.000000 -0.000001 -5.462533 -21.822301 -15.277260 0.000000 0.000000 0.000000 -41.539855 -28.186700 -42.662693 -9.093027 -26.803734 12.045794 -113.642702 25.261591 10.199960 18.604733 9.201145 -20.335722 9.366552 23.517108 3.907239 15.631113 30.652236 0.949983 0.000002 -0.000000 -0.000000 5.062911 7.259551 -60.393489 0.009029 -4.396057 -76.234733 -0.014953 1.943544 -28.702784 -0.000003 -0.000002 0.000002 -0.063977 4.758041 -60.986814 -0.080417 -4.896942 -84.974383 -0.077660 1.572470 -47.862684 0.000001 0.000000 0.000001 -0.034415 -0.057003 -61.362256 -0.169944 -1.351954 -91.625389 -0.058871 1.209376 -28.345012 0.000000 0.000004 -0.000000 -4.255091 -2.157306 -63.603166 -0.059589 -0.064766 -85.011089 -0.006188 -0.027516 -25.011495 0.000001 -0.000001 -0.000003 0.571899 -3.041687 8.393503 0.000000 0.000000 0.000000 -12.235267 14.739599 3.552607 31.986893 9.211514 -2.529617 -37.140267 -64.951172 -8.983997 15.959770 -4.187791 29.032207 -14.791977 -41.235474 -16.515539 1.538932 -36.186499 -16.491861 0.000000 0.000001 0.000005 5.358202 -4.863582 67.585036 0.006264 4.394821 68.693439 -0.015239 -1.944181 51.003785 0.000000 -0.000001 -0.000000 -0.076818 -4.752193 70.834888 -0.076446 4.897900 82.216346 -0.094638 -1.559166 59.800314 -0.000000 0.000001 0.000000 -1.164532 -6.475329 73.357482 -0.172080 1.351247 92.834367 -0.068410 -1.195415 42.966278 -0.000000 -0.000001 0.000003 -5.344952 -12.802396 81.125251 -0.058409 0.065303 84.695978 -0.011906 0.037061 34.883292 -0.000000 -0.000003 -0.000000 21.726313 35.583383 15.184742 25.598560 20.241619 -6.060154 -5.424497 -9.203260 -28.757224 -42.693262 -5.484977 -12.706145 0.000000 -0.000000 -0.000000 -71.967361 -8.697358 -9.708119 62.575488 6.289143 -7.627522 -4.064016 4.109790 5.259318 -2.924279 2.984575 1.673347 -0.000000 0.000000 -0.000000 
